<?xml version="1.0" encoding="utf-8"?>
<!-- Generator: Adobe Illustrator 23.1.1, SVG Export Plug-In . SVG Version: 6.00 Build 0)  -->
<svg version="1.1" id="Layer_1" xmlns="http://www.w3.org/2000/svg" xmlns:xlink="http://www.w3.org/1999/xlink" x="0px" y="0px"
	 viewBox="0 0 100 100" style="enable-background:new 0 0 100 100;" xml:space="preserve">
<style type="text/css">
	.st0{fill:#010101;}
</style>
<g>
	<path class="st0" d="M40.7,82.7c-9,0-16.4-7.3-16.4-16.4c0-5.6,2.9-10.7,7.3-13.6l-0.5-8.1C22.8,48.3,17,56.6,17,66.3
		C17,79.4,27.7,90,40.7,90c11.3,0,20.8-7.9,23.1-18.5h-7.7C54,78,47.9,82.7,40.7,82.7z"/>
	<path class="st0" d="M83,86.9l-5.9-26.5c-0.7-3-3.3-5.3-6.3-5.6l-15.1-1.5c-0.8-0.1-1.5-0.7-1.6-1.5l-0.6-3.3L68,48.7
		c0.7,0,1.3-0.6,1.3-1.3v-2.5c0-0.6-0.5-1.2-1.1-1.2l-15.7-1.9l-1.3-8.1c-0.4-2.7-2.8-4.7-5.6-4.7h-3.6c-3.3,0-5.8,2.8-5.6,6
		l1.4,22.3c0.3,4.8,4.3,8.5,9.1,8.5h20.8c0.8,0,1.6,0.6,1.8,1.3l5.3,20.4c0.3,1.3,1.4,2.1,2.7,2.1h3.5C82.2,89.6,83.3,88.3,83,86.9z
		"/>
	<circle class="st0" cx="42.6" cy="18.4" r="8.3"/>
</g>
</svg>
