<?xml version="1.0" encoding="utf-8"?>
<!-- Generator: Adobe Illustrator 23.1.1, SVG Export Plug-In . SVG Version: 6.00 Build 0)  -->
<svg version="1.1" id="Layer_1" xmlns="http://www.w3.org/2000/svg" xmlns:xlink="http://www.w3.org/1999/xlink" x="0px" y="0px"
	 viewBox="0 0 100 100" style="enable-background:new 0 0 100 100;" xml:space="preserve">
<path d="M50,10.3c-15.1,0-27.3,12.2-27.3,27.3c0,4.7,1.2,9.2,3.3,13.1c0.1,0.3,21.4,37.4,21.4,37.4c0.5,0.9,1.5,1.5,2.6,1.5
	c1.1,0,2.1-0.6,2.6-1.5c0,0,21.3-37.1,21.4-37.4c2.1-3.9,3.3-8.4,3.3-13.1C77.3,22.6,65.1,10.3,50,10.3z M50,52.3
	c-6.8,0-12.3-5.5-12.3-12.3c0-6.8,5.5-12.3,12.3-12.3c6.8,0,12.3,5.5,12.3,12.3C62.3,46.8,56.8,52.3,50,52.3z"/>
</svg>
