<?xml version="1.0" encoding="utf-8"?>
<!-- Generator: Adobe Illustrator 23.1.1, SVG Export Plug-In . SVG Version: 6.00 Build 0)  -->
<svg version="1.1" id="Layer_1" xmlns="http://www.w3.org/2000/svg" xmlns:xlink="http://www.w3.org/1999/xlink" x="0px" y="0px"
	 viewBox="0 0 100 100" style="enable-background:new 0 0 100 100;" xml:space="preserve">
<style type="text/css">
	.st0{fill:#010101;}
</style>
<g>
	<path class="st0" d="M91.3,24.4c0,3.3-2.7,6-6,6H14.7c-3.3,0-6-2.7-6-6l0,0c0-3.3,2.7-6,6-6h70.6C88.6,18.4,91.3,21.1,91.3,24.4
		L91.3,24.4z"/>
	<path class="st0" d="M81.3,49.7c0,3.3-2.7,6-6,6H24.7c-3.3,0-6-2.7-6-6l0,0c0-3.3,2.7-6,6-6h50.6C78.6,43.7,81.3,46.4,81.3,49.7
		L81.3,49.7z"/>
	<path class="st0" d="M66.3,75c0,3.3-2.7,6-6,6H39.7c-3.3,0-6-2.7-6-6l0,0c0-3.3,2.7-6,6-6h20.6C63.6,69,66.3,71.7,66.3,75L66.3,75z
		"/>
</g>
</svg>
