<?xml version="1.0" encoding="utf-8"?>
<!-- Generator: Adobe Illustrator 23.1.1, SVG Export Plug-In . SVG Version: 6.00 Build 0)  -->
<svg version="1.1" id="Layer_1" xmlns="http://www.w3.org/2000/svg" xmlns:xlink="http://www.w3.org/1999/xlink" x="0px" y="0px"
	 viewBox="0 0 100 100" style="enable-background:new 0 0 100 100;" xml:space="preserve">
<style type="text/css">
	.st0{fill:#010101;}
</style>
<g>
	<path class="st0" d="M59.6,10.8C44.9,10.8,33,22.7,33,37.3c0,1.7,1.3,3,3,3c1.7,0,3-1.3,3-3c0-11.3,9.2-20.6,20.6-20.6
		c12.3,0,20,7.4,20,19.5c0,4.8-2.8,8.7-5.9,12.6c-3,4-6,8.1-6.7,13.5c-1.2,10.2-5,21.1-12.4,21.1c-7.3,0-10.6-5.9-10.6-11.9
		c0-1.7-1.3-3-3-3s-2.9,1.3-2.9,3c0,8.8,5.6,17.8,16.4,17.8c9.5,0,16.4-9.8,18.3-26.3c0.4-3.8,2.9-7.1,5.5-10.6
		c3.3-4.4,7-9.4,7-16.2C85.4,21,75.1,10.8,59.6,10.8z"/>
	<path class="st0" d="M59.6,28c4.1,0,8.3,1.9,8.3,6.2c0,1.7,1.3,3,3,3s3-1.3,3-3c0-7-5.9-12.1-14.2-12.1c-4.2,0-8.5,2.1-11.6,5.5
		c-2.7,3.1-4.1,6.7-3.7,10.2c0.2,2.9,2,5.5,3.8,8.1c3.1,4.7,3.1,10.7,1.4,14.6c-2.7,6.1,4.1,9.6,8.5,6.7c3.3-2.2,1.9-10.1-0.2-15.8
		c-0.4-1.3-1-2.5-1.7-3.6c-0.2-0.2-0.2-0.5-0.4-0.7c0,0,0,0-0.1-0.1c-0.9-1.6-1.8-3-2.7-4.2c-1.4-2.1-2.8-4-2.9-5.5
		c-0.2-1.8,0.7-3.9,2.2-5.7C54.4,29.3,57.1,28,59.6,28z"/>
	<path class="st0" d="M34.6,46.4c-1.2-1.2-3.1-1.2-4.2,0L25,51.8l-5.4-5.4c-1.2-1.2-3.1-1.2-4.2,0c-1.2,1.2-1.2,3.1,0,4.2l5.4,5.4
		l-5.4,5.4c-1.2,1.2-1.2,3.1,0,4.2c0.6,0.6,1.3,0.8,2.1,0.8c0.7,0,1.5-0.2,2.1-0.8l5.4-5.4l5.4,5.4c0.6,0.6,1.3,0.8,2.1,0.8
		s1.5-0.2,2.1-0.8c1.2-1.2,1.2-3.1,0-4.2L29.1,56l5.4-5.4C35.8,49.5,35.8,47.6,34.6,46.4z"/>
</g>
</svg>
