<?xml version="1.0" encoding="utf-8"?>
<!-- Generator: Adobe Illustrator 23.1.1, SVG Export Plug-In . SVG Version: 6.00 Build 0)  -->
<svg version="1.1" id="Layer_1" xmlns="http://www.w3.org/2000/svg" xmlns:xlink="http://www.w3.org/1999/xlink" x="0px" y="0px"
	 viewBox="0 0 100 100" style="enable-background:new 0 0 100 100;" xml:space="preserve">
<style type="text/css">
	.st0{fill:#010101;}
</style>
<g>
	<path class="st0" d="M29.3,25.5c0.6-0.7,1-1.7,1-3c0-1.3-0.4-2.2-1.2-2.8c-0.8-0.5-2.1-0.8-3.9-0.8h-3.3v7.7h3.7
		C27.4,26.5,28.6,26.1,29.3,25.5z"/>
	<path class="st0" d="M17.3,37.8H34c2.2,0,4.1-1.8,4.1-4.1V17.1c0-2.2-1.8-4.1-4.1-4.1H17.3c-2.2,0-4.1,1.8-4.1,4.1v16.6
		C13.3,36,15.1,37.8,17.3,37.8z M18.7,15.9h6.6c2.9,0,5,0.6,6.4,1.7c1.3,1.1,2,2.8,2,5.2c0,2.3-0.7,4-2,5.1
		c-1.4,1.1-3.4,1.6-6.3,1.6h-3.4V35h-3.2V15.9z"/>
	<path class="st0" d="M82.4,55.7l-2.7-15.4c-0.9-5.3-5.4-9.1-10.8-9.1H40.3v2.6c0,1.1-0.3,2.2-0.8,3.1h9.1v1.7h-2c-1.1,0-2,0.9-2,2
		c0,1.1,0.9,2,2,2h6.9c1.1,0,2-0.9,2-2c0-1.1-0.9-2-2-2h-2v-1.7h17.5c2.6,0,4.7,1.8,5.2,4.4L76.5,55h-53l2.4-13.7
		c0.1-0.4,0.2-0.8,0.3-1.1h-5.9c0,0.1,0,0.1,0,0.2l-2.7,15.4c-2.6,1.2-4.4,3.8-4.4,6.8v13.7c0,0.8,0.6,1.4,1.4,1.4h2.3v6.6
		c0,1.5,1.2,2.7,2.7,2.7h4.5c1.5,0,2.7-1.2,2.7-2.7v-6.6H73v6.6c0,1.5,1.2,2.7,2.7,2.7h4.5c1.5,0,2.7-1.2,2.7-2.7v-6.6h2.3
		c0.8,0,1.4-0.6,1.4-1.4V62.5C86.8,59.5,85,56.9,82.4,55.7z M26.3,71c-2.6,0-4.7-2.1-4.7-4.7c0-2.6,2.1-4.7,4.7-4.7s4.7,2.1,4.7,4.7
		C31,68.9,28.9,71,26.3,71z M64.4,63.1l-5.8,7.6c-0.2,0.2-0.4,0.4-0.7,0.4H42.1c-0.3,0-0.5-0.1-0.7-0.4l-5.8-7.6
		c-0.4-0.6,0-1.5,0.7-1.5h27.3C64.4,61.6,64.8,62.5,64.4,63.1z M73.7,71c-2.6,0-4.7-2.1-4.7-4.7c0-2.6,2.1-4.7,4.7-4.7
		s4.7,2.1,4.7,4.7S76.3,71,73.7,71z"/>
</g>
</svg>
