<?xml version="1.0" encoding="utf-8"?>
<!-- Generator: Adobe Illustrator 23.1.1, SVG Export Plug-In . SVG Version: 6.00 Build 0)  -->
<svg version="1.1" id="Layer_1" xmlns="http://www.w3.org/2000/svg" xmlns:xlink="http://www.w3.org/1999/xlink" x="0px" y="0px"
	 viewBox="0 0 100 100" style="enable-background:new 0 0 100 100;" xml:space="preserve">
<style type="text/css">
	.st0{fill:#010101;}
</style>
<g transform="matrix( 1, 0, 0, 1, 0,0) ">
	<g>
		<g id="a">
			<path class="st0" d="M84.2,24.2c1.2-1.2,1.8-2.6,1.8-4.2c0-1.7-0.6-3.1-1.8-4.2C83.1,14.6,81.7,14,80,14c-1.7,0-3.1,0.6-4.2,1.8
				L50,41.5L24.2,15.8C23.1,14.6,21.7,14,20,14c-1.7,0-3.1,0.6-4.2,1.8C14.6,16.9,14,18.3,14,20c0,1.7,0.6,3.1,1.8,4.2L41.5,50
				L15.8,75.8C14.6,76.9,14,78.3,14,80c0,1.7,0.6,3.1,1.8,4.2c1.2,1.2,2.6,1.8,4.2,1.8c1.7,0,3.1-0.6,4.2-1.8L50,58.5l25.8,25.8
				c1.2,1.2,2.6,1.8,4.2,1.8c1.7,0,3.1-0.6,4.2-1.8c1.2-1.2,1.8-2.6,1.8-4.2c0-1.7-0.6-3.1-1.8-4.2L58.5,50L84.2,24.2z"/>
		</g>
	</g>
</g>
</svg>
